HIERARCHY
ROOT root
{
	OFFSET 0.000000 0.000000 0.000000
	CHANNELS 6 Xposition Yposition Zposition Zrotation Yrotation Xrotation
	JOINT lhip
	{
		OFFSET 0.058581 -0.082280 -0.017664
		CHANNELS 3 Zrotation Yrotation Xrotation
		JOINT lknee
		{
			OFFSET 0.043451 -0.386469 0.008037
			CHANNELS 3 Zrotation Yrotation Xrotation
			JOINT lankle
			{
				OFFSET -0.014790 -0.426874 -0.037428
				CHANNELS 3 Zrotation Yrotation Xrotation
				JOINT ltoe
				{
					OFFSET 0.041054 -0.060286 0.122042
					CHANNELS 3 Zrotation Yrotation Xrotation
					End Site
					{
						OFFSET 0.000000 0.000000 0.000000
					}
				}
			}
		}
	}
	JOINT rhip
	{
		OFFSET -0.060310 -0.090513 -0.013543
		CHANNELS 3 Zrotation Yrotation Xrotation
		JOINT rknee
		{
			OFFSET -0.043257 -0.383688 -0.004843
			CHANNELS 3 Zrotation Yrotation Xrotation
			JOINT rankle
			{
				OFFSET 0.019056 -0.420046 -0.034562
				CHANNELS 3 Zrotation Yrotation Xrotation
				JOINT rtoe
				{
					OFFSET -0.034840 -0.062106 0.130323
					CHANNELS 3 Zrotation Yrotation Xrotation
					End Site
					{
						OFFSET 0.000000 0.000000 0.000000
					}
				}
			}
		}
	}
	JOINT lowerback
	{
		OFFSET 0.004439 0.124404 -0.038385
		CHANNELS 3 Zrotation Yrotation Xrotation
		JOINT upperback
		{
			OFFSET 0.004488 0.137956 0.026820
			CHANNELS 3 Zrotation Yrotation Xrotation
			JOINT chest
			{
				OFFSET -0.002265 0.056032 0.002855
				CHANNELS 3 Zrotation Yrotation Xrotation
				JOINT lowerneck
				{
					OFFSET -0.013390 0.211636 -0.033468
					CHANNELS 3 Zrotation Yrotation Xrotation
					JOINT upperneck
					{
						OFFSET 0.010113 0.088937 0.050410
						CHANNELS 3 Zrotation Yrotation Xrotation
						End Site
						{
							OFFSET 0.000000 0.000000 0.000000
						}
					}
				}
				JOINT lclavicle
				{
					OFFSET 0.071702 0.114000 -0.018898
					CHANNELS 3 Zrotation Yrotation Xrotation
					JOINT lshoulder
					{
						OFFSET 0.122921 0.045205 -0.019046
						CHANNELS 3 Zrotation Yrotation Xrotation
						JOINT lelbow
						{
							OFFSET 0.255332 -0.015649 -0.022946
							CHANNELS 3 Zrotation Yrotation Xrotation
							JOINT lwrist
							{
								OFFSET 0.265709 0.012698 -0.007375
								CHANNELS 3 Zrotation Yrotation Xrotation
								End Site
								{
									OFFSET 0.000000 0.000000 0.000000
								}
							}
						}
					}
				}
				JOINT rclavicle
				{
					OFFSET -0.082954 0.112472 -0.023707
					CHANNELS 3 Zrotation Yrotation Xrotation
					JOINT rshoulder
					{
						OFFSET -0.113228 0.046853 -0.008472
						CHANNELS 3 Zrotation Yrotation Xrotation
						JOINT relbow
						{
							OFFSET -0.260127 -0.014369 -0.031269
							CHANNELS 3 Zrotation Yrotation Xrotation
							JOINT rwrist
							{
								OFFSET -0.269108 0.006794 -0.006027
								CHANNELS 3 Zrotation Yrotation Xrotation
								End Site
								{
									OFFSET 0.000000 0.000000 0.000000
								}
							}
						}
					}
				}
			}
		}
	}
}
MOTION
Frames: 5
Frame Time: 0.033333
-0.311963 -1.915189 1.098572 -0.720494 0.631156 85.009232 7.386951 3.476570 8.883461 -7.847880 -1.100835 2.271024 -7.779177 7.245800 5.850868 0.000000 -0.000000 0.000000 -5.624271 -4.928674 3.423484 7.278517 -2.534253 10.576356 13.686906 -2.308802 3.039563 0.000000 -0.000000 0.000000 0.700696 -0.021351 -0.872906 0.792174 -2.797659 8.383925 -0.116397 -1.232805 -2.615589 3.143001 2.841168 -1.009375 2.664687 -0.812194 9.316166 -30.998938 -0.432876 7.680069 -55.424972 -6.459409 6.219380 11.756796 -27.496856 -1.133794 -1.138068 -8.116702 -5.388631 27.718940 3.935969 8.532957 55.229180 6.206762 11.502737 -12.015348 23.596940 -5.674551 2.754598 3.641085 -7.319335 
-0.311895 -1.915629 1.097510 -0.408086 0.616351 84.986983 7.931477 2.977318 8.906969 -8.331027 -2.175277 2.443870 -8.534438 6.759075 5.462295 0.000000 -0.000000 0.000000 -6.048091 -4.693972 3.662159 7.631925 -1.888262 10.454346 14.412196 -1.937969 3.015616 0.000000 -0.000000 0.000000 0.540883 -0.125769 -1.046250 0.766042 -2.992701 8.249727 -0.074468 -1.421283 -2.375396 3.232978 2.689853 -1.141397 2.690294 -1.294981 10.033705 -30.801815 -0.503791 7.733074 -55.699200 -6.854343 5.968446 11.802537 -26.333222 -1.160786 -1.168629 -8.077599 -5.485111 27.565618 3.654138 8.529187 55.464693 6.385888 11.344266 -11.967211 23.463141 -5.646395 2.791444 3.900338 -7.133911 
-0.311784 -1.916305 1.097945 -0.194546 0.605764 84.991497 8.152336 2.496435 8.581467 -8.573865 -2.931142 3.016124 -8.882986 6.469300 5.722815 0.000000 -0.000000 0.000000 -6.272740 -4.456373 3.663857 7.776684 -1.470122 10.544781 14.670861 -1.599941 3.529747 0.000000 -0.000000 0.000000 0.430622 -0.162438 -1.376912 0.805041 -3.140403 8.453917 -0.117428 -1.520205 -2.373590 3.178730 2.717432 -1.080498 2.542444 -1.412342 10.681303 -30.814807 -0.472645 7.684271 -55.713302 -7.110723 6.031587 11.774952 -25.254170 -1.301987 -1.212394 -8.091603 -5.482974 27.634923 3.388015 8.539664 55.490479 6.348849 11.303115 -11.919922 22.978938 -5.825635 2.741927 3.880080 -7.206346 
-0.311225 -1.917475 1.099879 -0.154998 0.612617 84.927610 8.132395 2.030657 8.282248 -8.607202 -3.666589 3.604063 -8.997426 6.265937 6.742169 0.000000 -0.000000 0.000000 -6.418712 -4.177235 3.536999 7.821607 -1.185374 10.743194 14.854644 -1.460394 4.962394 0.000000 -0.000000 0.000000 0.454794 -0.148400 -1.651913 0.844264 -3.151302 8.670333 -0.197017 -1.505935 -2.459069 2.997260 2.663879 -0.882946 2.390259 -1.470902 10.984198 -30.861408 -0.408286 7.662662 -55.734763 -7.183537 6.349618 11.767520 -24.345952 -1.456958 -1.361878 -8.228428 -5.232036 27.661788 3.160011 8.623618 55.423261 6.057593 11.336443 -11.770970 22.402780 -5.940532 2.756606 3.891971 -7.134995 
-0.310831 -1.918183 1.100962 -0.227831 0.615121 84.863872 8.089123 1.849734 8.193803 -8.587174 -3.999734 3.938935 -9.121683 6.201262 7.144252 0.000000 -0.000000 0.000000 -6.480343 -4.058404 3.384046 7.801882 -1.047893 11.024043 15.014537 -1.382523 5.752899 0.000000 -0.000000 0.000000 0.486968 -0.164903 -1.806067 0.855248 -3.101040 8.806494 -0.230648 -1.461347 -2.434762 2.915346 2.700812 -0.795574 2.320812 -1.513809 10.867908 -30.737987 -0.329440 7.675555 -55.897675 -7.146940 6.493875 11.823384 -24.130514 -1.450395 -1.549998 -8.345477 -5.080896 27.522193 3.104422 8.665137 55.490350 5.903542 11.345995 -11.678462 22.086992 -5.831815 2.848900 3.868465 -7.082685 
